<mxfile host="app.diagrams.net" modified="2024-05-31T01:35:49.971Z" agent="Mozilla/5.0 (Windows NT 10.0; Win64; x64) AppleWebKit/537.36 (KHTML, like Gecko) Chrome/123.0.0.0 Safari/537.36 OPR/109.0.0.0" version="24.4.10" etag="PEhqvW5PfICrMRyjTRbd" type="github">
  <diagram name="PÃ¡gina-1" id="m4nRWgh1Ib0azzwQddEs">
    <mxGraphModel>
      <root>
        <mxCell id="0" />
        <mxCell id="1" parent="0" />
      </root>
    </mxGraphModel>
  </diagram>
</mxfile>
